<?xml version="1.0" encoding="UTF-8"?>
<svg version="1.1" xmlns="http://www.w3.org/2000/svg" width="553" height="512">
<path d="M0 0 C5.60221642 8.78693893 7.37948138 19.75400274 7 30 C10.66910554 28.77696482 11.44441033 27.42760073 13.75 24.375 C23.72948394 11.64255498 36.65077031 1.83338084 53 -1 C72.82944495 -2.48408667 89.33600116 0.36873368 105.1875 13.1875 C123.23739262 30.0789109 131.0731901 54.31222407 132.10668945 78.49658203 C132.82468162 107.91995812 127.84439857 136.83765277 107 159 C92.0677461 174.07560353 73.6901823 181.14021815 52.54956055 181.32958984 C51.46070557 181.3239502 50.37185059 181.31831055 49.25 181.3125 C47.53647339 181.30404053 47.53647339 181.30404053 45.78833008 181.29541016 C31.83257851 181.09537739 20.3654421 178.4433754 8 172 C8.16109253 172.54937729 8.32218506 173.09875458 8.48815918 173.66477966 C9.06272563 176.28617915 9.15373632 178.67972587 9.18945312 181.36352539 C9.20617065 182.4346608 9.22288818 183.5057962 9.2401123 184.60939026 C9.25368774 185.76051804 9.26726318 186.91164581 9.28125 188.09765625 C9.29965942 189.28346786 9.31806885 190.46927948 9.33703613 191.69102478 C9.41572862 196.76796439 9.48351969 201.84503639 9.55224609 206.92211914 C9.60393668 210.62653223 9.66119485 214.3308304 9.71875 218.03515625 C9.73232544 219.18830826 9.74590088 220.34146027 9.7598877 221.52955627 C9.77660522 222.59753952 9.79332275 223.66552277 9.81054688 224.76586914 C9.82307495 225.70644669 9.83560303 226.64702423 9.84851074 227.61610413 C9.90752898 230.148298 9.90752898 230.148298 11 233 C18.52798055 235.566357 26.63802947 236.12240488 34.5 237.125 C35.90891 237.30816478 37.31776476 237.491755 38.7265625 237.67578125 C42.15041844 238.12209614 45.57498696 238.56264239 49 239 C49.78420022 242.62323233 50.03436415 245.55465878 49.625 249.25 C49.53476563 250.12140625 49.44453125 250.9928125 49.3515625 251.890625 C49 254 49 254 48 255 C45.01701786 255.0952822 42.05723655 255.12552175 39.07397461 255.11352539 C38.13748581 255.11367142 37.20099701 255.11381744 36.23612976 255.1139679 C33.12484461 255.11326837 30.01361851 255.10547415 26.90234375 255.09765625 C24.75142957 255.09579221 22.60051497 255.09436824 20.44960022 255.09336853 C14.77618242 255.08954225 9.10279005 255.07971102 3.42938232 255.06866455 C-2.35501766 255.0584528 -8.13942173 255.05387142 -13.92382812 255.04882812 C-25.28256328 255.03808885 -36.64127953 255.02101111 -48 255 C-48.33895656 253.27192682 -48.67091525 251.54248026 -49 249.8125 C-49.185625 248.84957031 -49.37125 247.88664063 -49.5625 246.89453125 C-49.96877612 244.2065794 -50.07933572 241.71228981 -50 239 C-48.98679687 238.74605469 -47.97359375 238.49210938 -46.9296875 238.23046875 C-45.57803342 237.88316874 -44.22647599 237.53549241 -42.875 237.1875 C-41.87726562 236.9390332 -41.87726562 236.9390332 -40.859375 236.68554688 C-33.14414477 234.68729287 -33.14414477 234.68729287 -27.1875 229.6875 C-24.86098962 224.42223967 -24.85366589 218.98993109 -24.86628723 213.3157196 C-24.86402167 212.56148596 -24.86175612 211.80725232 -24.85942191 211.03016311 C-24.85311252 208.51317567 -24.8539093 205.9962425 -24.85473633 203.47924805 C-24.85174292 201.67032807 -24.84833997 199.86140873 -24.84455872 198.05249023 C-24.83573286 193.14536952 -24.83338119 188.23826625 -24.83274293 183.33113837 C-24.83203161 180.26326107 -24.82989572 177.19538818 -24.82724571 174.12751198 C-24.81799687 163.41874536 -24.81391024 152.70999118 -24.81469727 142.0012207 C-24.81529789 132.02879034 -24.80474784 122.0564141 -24.7889536 112.08399743 C-24.7758655 103.51395275 -24.77051391 94.94392574 -24.77115268 86.37387115 C-24.77140729 81.25903629 -24.76857599 76.14424954 -24.75797462 71.02942467 C-24.74827232 66.21707823 -24.74822909 61.40482569 -24.75549126 56.59247589 C-24.75653446 54.83049952 -24.75418998 53.06851724 -24.7481308 51.30655098 C-23.95250291 37.18410267 -23.95250291 37.18410267 -28.9375 24.6875 C-36.17561777 20.69914939 -43.93383267 18.58678702 -52 17 C-51.85851011 15.3954444 -51.71164314 13.79136233 -51.5625 12.1875 C-51.48128906 11.29417969 -51.40007813 10.40085938 -51.31640625 9.48046875 C-51 7 -51 7 -50 4 C-38.11932 2.45189729 -26.23415257 0.94908716 -14.3125 -0.25 C-13.01469604 -0.38801025 -13.01469604 -0.38801025 -11.69067383 -0.52880859 C-3.17779154 -1.35085895 -3.17779154 -1.35085895 0 0 Z M13.5859375 41.93359375 C9.16000273 47.70039053 8.55018492 54.06362037 8.54833984 61.05883789 C8.53665771 61.9265834 8.52497559 62.79432892 8.51293945 63.68836975 C8.47956911 66.53324666 8.46864155 69.37760135 8.4609375 72.22265625 C8.44874581 74.21227699 8.43625945 76.20189593 8.42349243 78.19151306 C8.40107576 82.35143141 8.39146814 86.51116726 8.38916016 90.67114258 C8.38386611 95.99338844 8.33244114 101.31411348 8.26964378 106.63594913 C8.22873654 110.74102232 8.21951769 114.84572814 8.21904373 118.95098686 C8.21366912 120.91298331 8.19684607 122.87498405 8.16819382 124.83677864 C8.13141706 127.5824907 8.13919447 130.32473501 8.15771484 133.07055664 C8.13726105 133.87438782 8.11680725 134.67821899 8.09573364 135.50640869 C8.18229274 140.19049879 9.03478605 142.53474247 12.34487915 145.92625427 C23.68082936 156.1562623 38.34904912 159.2024728 53.125 159.4375 C54.04345703 159.45997803 54.96191406 159.48245605 55.90820312 159.50561523 C65.37145396 159.47254473 73.26900307 156.58485395 80.1875 150.04296875 C93.57033794 134.95843374 95.59112498 114.56903543 95.4375 95.3125 C95.43393494 94.13352142 95.43393494 94.13352142 95.43029785 92.9307251 C95.37195456 80.58170769 94.51687482 68.90608662 91 57 C90.71125 56.00097656 90.4225 55.00195312 90.125 53.97265625 C86.59638778 43.74913244 79.21596016 34.21591811 69.8671875 28.75390625 C51.12618932 19.81636751 28.33704186 29.59806324 13.5859375 41.93359375 Z " fill="#FFFFFF" transform="translate(63,172)"/>
<path d="M0 0 C0.78817108 -0.00067474 1.57634216 -0.00134949 2.38839722 -0.00204468 C13.91096905 0.01365545 24.9714034 0.38026701 36.1875 3.25 C36.98510742 3.44819336 37.78271484 3.64638672 38.60449219 3.85058594 C53.05526397 7.49517598 53.05526397 7.49517598 57.1875 10.25 C57.65161133 12.60644531 57.65161133 12.60644531 57.76953125 15.578125 C57.81553467 16.67753418 57.86153809 17.77694336 57.90893555 18.90966797 C57.93898682 20.09447754 57.96903809 21.27928711 58 22.5 C58.03714111 23.71187988 58.07428223 24.92375977 58.11254883 26.17236328 C58.45700068 41.67980936 56.8941036 56.98936269 54.1875 72.25 C50.91721069 72.75360223 47.64618619 73.25225954 44.375 73.75 C43.44623047 73.89308594 42.51746094 74.03617187 41.56054688 74.18359375 C40.66787109 74.31894531 39.77519531 74.45429688 38.85546875 74.59375 C37.62219849 74.78227539 37.62219849 74.78227539 36.36401367 74.97460938 C34.1875 75.25 34.1875 75.25 31.1875 75.25 C31.11756836 74.61723145 31.04763672 73.98446289 30.97558594 73.33251953 C29.75461916 62.47926342 28.50980523 51.66874731 26.125 41 C25.96290039 40.2692627 25.80080078 39.53852539 25.63378906 38.78564453 C24.30932138 32.44986505 24.30932138 32.44986505 20.19140625 27.8359375 C4.05540692 19.83248183 -16.26691575 19.99089674 -33.38671875 24.9921875 C-42.17593943 28.21924458 -50.42519179 33.27763483 -54.65307617 41.98022461 C-56.76350386 47.0463773 -57.32521836 51.60505522 -57.25 57.0625 C-57.24097656 57.85003662 -57.23195313 58.63757324 -57.22265625 59.44897461 C-56.93898535 69.0474917 -54.41497177 76.85839034 -47.640625 83.87109375 C-32.90927764 96.26251715 -14.90912811 103.73288383 2.56323242 111.33422852 C18.55036506 118.30014498 33.60009321 125.17721437 47.1875 136.25 C47.86167969 136.76046875 48.53585937 137.2709375 49.23046875 137.796875 C59.8712655 146.15917885 66.46344293 159.96692391 68.1875 173.25 C70.48354218 194.57669948 67.93757717 214.44942203 54.15625 231.80859375 C39.53102526 248.72544702 20.26746211 257.68102516 -1.8125 260.25 C-7.48208954 260.54875217 -13.13617997 260.59158713 -18.8125 260.5625 C-19.97468048 260.55876877 -19.97468048 260.55876877 -21.16033936 260.55496216 C-45.22462403 260.43558644 -71.43733412 257.16320595 -92.8125 245.25 C-94.30583247 242.26333506 -93.99544669 239.19470391 -94.015625 235.91796875 C-94.02245804 235.17766418 -94.02929108 234.43735962 -94.03633118 233.67462158 C-94.05350159 231.26220214 -94.05966996 228.84997713 -94.0625 226.4375 C-94.06450409 225.6229837 -94.06650818 224.80846741 -94.068573 223.9692688 C-94.08545748 196.06887243 -94.08545748 196.06887243 -89.8125 183.25 C-88.02137038 183.07765763 -86.22954909 182.91250319 -84.4375 182.75 C-83.43976563 182.6571875 -82.44203125 182.564375 -81.4140625 182.46875 C-76.87556443 182.19309285 -72.35767821 182.20912405 -67.8125 182.25 C-67.71227539 183.06041748 -67.61205078 183.87083496 -67.50878906 184.70581055 C-67.1228423 187.78047597 -66.72635943 190.85356765 -66.32324219 193.92602539 C-66.06961351 195.88262342 -65.82760626 197.8407169 -65.5859375 199.79882812 C-64.21125299 214.0158546 -64.21125299 214.0158546 -57.89379883 226.27880859 C-55.62701133 227.98349616 -53.40901099 229.10634308 -50.8125 230.25 C-49.80058594 230.69730469 -48.78867187 231.14460937 -47.74609375 231.60546875 C-29.97941229 238.62567545 -6.79575016 242.19623983 11.4921875 235.5078125 C15.60708966 233.58752483 18.89191949 231.36410581 22.1875 228.25 C22.81398438 227.68667969 23.44046875 227.12335938 24.0859375 226.54296875 C31.07394398 219.54021964 33.32413645 210.44360169 33.6875 200.75 C33.25996565 189.31690409 29.45707782 179.99523999 22.1875 171.25 C21.68734375 170.63769531 21.1871875 170.02539062 20.671875 169.39453125 C10.48577313 158.15380772 -4.52504852 152.39904679 -18.1875 146.6875 C-37.40179547 138.57995927 -37.40179547 138.57995927 -46.59765625 134.01171875 C-47.22598358 133.70149277 -47.85431091 133.39126678 -48.50167847 133.07164001 C-55.05106016 129.75688808 -60.95040154 125.65485365 -66.8125 121.25 C-67.84117187 120.49976563 -67.84117187 120.49976563 -68.890625 119.734375 C-79.92837045 111.08316911 -87.15773651 97.00053558 -89.09521484 83.24243164 C-91.04263107 63.92623168 -88.10715349 45.21217407 -75.77734375 29.6875 C-55.9767552 6.77888256 -29.31430338 0.02241765 0 0 Z " fill="#00573A" transform="translate(457.8125,173.75)"/>
<path d="M0 0 C3.375 0.9375 3.375 0.9375 5.375 2.9375 C6.37262714 5.88719485 6.49685354 8.6079845 6.48852539 11.70605469 C6.48844986 12.64672791 6.48837433 13.58740112 6.48829651 14.55657959 C6.48313522 15.56400208 6.47797394 16.57142456 6.47265625 17.609375 C6.47053383 19.16570648 6.47053383 19.16570648 6.46836853 20.753479 C6.46277447 24.06484876 6.45022303 27.37615071 6.4375 30.6875 C6.43248423 32.93359277 6.42792146 35.17968661 6.42382812 37.42578125 C6.41280699 42.9297106 6.39607474 48.43360046 6.375 53.9375 C7.56738281 53.90269531 8.75976562 53.86789063 9.98828125 53.83203125 C11.55467342 53.80389247 13.12108081 53.7765924 14.6875 53.75 C15.86602539 53.71229492 15.86602539 53.71229492 17.06835938 53.67382812 C17.82568359 53.66416016 18.58300781 53.65449219 19.36328125 53.64453125 C20.40802612 53.62096558 20.40802612 53.62096558 21.47387695 53.59692383 C23.95468737 54.04134794 24.80473055 55.01207505 26.375 56.9375 C27.25 58.8125 27.25 58.8125 27.375 60.9375 C26.22713059 63.18106294 25.1654233 65.1470767 23.375 66.9375 C20.67845146 67.01069621 18.00808542 67.02992537 15.3125 67 C14.55388672 66.99548828 13.79527344 66.99097656 13.01367188 66.98632812 C11.13408129 66.9745068 9.25453101 66.95657078 7.375 66.9375 C7.38499275 67.86711296 7.38499275 67.86711296 7.39518738 68.81550598 C7.46146509 75.2552879 7.50676909 81.69497322 7.53979492 88.13500977 C7.55489816 90.53967218 7.57538208 92.94430698 7.60131836 95.34887695 C7.63763351 98.80166431 7.654711 102.25408804 7.66796875 105.70703125 C7.68345261 106.78523636 7.69893646 107.86344147 7.71488953 108.97431946 C7.71522942 110.47553596 7.71522942 110.47553596 7.71557617 112.00708008 C7.72556892 113.32945427 7.72556892 113.32945427 7.73576355 114.67854309 C7.375 116.9375 7.375 116.9375 6.07246399 118.7183075 C3.20912874 120.77487947 0.76143622 120.36080453 -2.625 119.9375 C-5.47906231 117.40998944 -5.62828316 115.89389964 -5.91796875 112.046875 C-5.89814945 110.59345991 -5.86254845 109.14018833 -5.8125 107.6875 C-5.79896484 106.94242187 -5.78542969 106.19734375 -5.77148438 105.4296875 C-5.73627204 103.59864584 -5.68246851 101.76797831 -5.625 99.9375 C-6.62426514 99.94273682 -7.62353027 99.94797363 -8.65307617 99.95336914 C-25.7259414 100.03429295 -42.80575437 100.09248706 -59.875 99.6875 C-61.02508545 99.67340088 -62.1751709 99.65930176 -63.36010742 99.64477539 C-73.96677331 99.32824097 -82.79184351 96.24844606 -90.625 88.9375 C-97.43206374 81.49757999 -99.81115585 74.86581195 -99.625 64.9375 C-100.32584717 64.95321045 -101.02669434 64.9689209 -101.7487793 64.98510742 C-104.93660351 65.04762412 -108.12429851 65.08654381 -111.3125 65.125 C-112.41529297 65.15013672 -113.51808594 65.17527344 -114.65429688 65.20117188 C-116.2543457 65.21567383 -116.2543457 65.21567383 -117.88671875 65.23046875 C-118.86600342 65.2461792 -119.84528809 65.26188965 -120.85424805 65.27807617 C-124.15669983 64.87214435 -126.01179043 63.98278651 -128.625 61.9375 C-129.45321133 56.14002072 -129.45321133 56.14002072 -127.45385742 53.23706055 C-124.86994172 51.40096613 -123.01062137 51.59660221 -119.86328125 51.64453125 C-118.74501953 51.65419922 -117.62675781 51.66386719 -116.47460938 51.67382812 C-114.72374023 51.7115332 -114.72374023 51.7115332 -112.9375 51.75 C-111.75865234 51.76353516 -110.57980469 51.77707031 -109.36523438 51.79101562 C-106.45136589 51.82640674 -103.53841055 51.87578191 -100.625 51.9375 C-100.57166504 51.34074463 -100.51833008 50.74398926 -100.46337891 50.12915039 C-99.47667208 40.10237801 -96.08421017 32.8812363 -88.625 25.9375 C-81.75027039 20.60552467 -74.87846221 18.67890576 -66.15625 18.70703125 C-65.45022644 18.70712692 -64.74420288 18.7072226 -64.01678467 18.70732117 C-61.71934876 18.71103277 -59.42234697 18.7299702 -57.125 18.75 C-55.52962394 18.75687768 -53.93424623 18.76338367 -52.33886719 18.76953125 C-37.09198395 18.85271276 -21.85883535 19.3226522 -6.625 19.9375 C-6.74359375 18.91269531 -6.8621875 17.88789062 -6.984375 16.83203125 C-7.11573998 15.47146535 -7.24588402 14.11078117 -7.375 12.75 C-7.45621094 12.07646484 -7.53742188 11.40292969 -7.62109375 10.70898438 C-7.94292156 7.0437232 -7.74754398 5.14609709 -5.8671875 1.9453125 C-3.625 -0.0625 -3.625 -0.0625 0 0 Z M-82.78125 37.9453125 C-86.40851841 43.66036912 -87.71677666 48.18273785 -87.625 54.9375 C-87.61210937 56.154375 -87.59921875 57.37125 -87.5859375 58.625 C-87.27491148 66.87537439 -86.79489218 73.52989425 -80.98046875 79.67578125 C-75.92536303 84.29035489 -71.45092517 86.1462794 -64.55078125 86.3515625 C-62.73622437 86.40969116 -62.73622437 86.40969116 -60.88500977 86.46899414 C-59.58233154 86.49985107 -58.27965332 86.53070801 -56.9375 86.5625 C-55.57803696 86.60059314 -54.21858066 86.63892757 -52.85913086 86.67749023 C-37.11778993 87.09360165 -21.37019678 87.03253555 -5.625 86.9375 C-5.55832056 74.5517937 -5.74755588 62.19216046 -6.125 49.8125 C-6.17341655 48.16016325 -6.22159449 46.50781949 -6.26953125 44.85546875 C-6.38528909 40.88272685 -6.50420956 36.91009194 -6.625 32.9375 C-17.82587402 32.57602642 -29.02737398 32.25984878 -40.23095703 31.99468994 C-41.7788365 31.95771352 -43.32669079 31.91966073 -44.87451172 31.88031006 C-49.52035615 31.76263882 -54.16544578 31.68350334 -58.8125 31.625 C-60.5617981 31.58052734 -60.5617981 31.58052734 -62.34643555 31.53515625 C-70.24348471 31.47943286 -76.82860489 32.40245093 -82.78125 37.9453125 Z " fill="#00573A" transform="translate(329.625,101.0625)"/>
<path d="M0 0 C0.92922272 -0.025746 1.85844543 -0.051492 2.81582642 -0.07801819 C7.12235645 -0.16291025 11.42871826 -0.22825748 15.73583984 -0.27441406 C17.98970992 -0.30580725 20.24342128 -0.35329652 22.49658203 -0.41796875 C35.79390903 -0.79410437 45.66421005 -0.37602388 57.22070312 6.45703125 C61.86105244 8.95871034 65.51451863 9.10869759 70.65380859 8.55297852 C76.68217423 8.08201245 80.11214003 8.13318281 85.52880859 11.24047852 C89.88849677 12.61414928 92.57386196 11.8508499 96.82568359 10.33422852 C98.03224609 9.92043945 99.23880859 9.50665039 100.48193359 9.08032227 C103.00079267 8.1958622 105.51478571 7.29887419 108.02880859 6.40063477 C115.06058552 3.99935775 120.22807317 2.41529466 127.52880859 4.24047852 C129.90380859 5.58032227 129.90380859 5.58032227 131.52880859 7.17797852 C132.08568359 7.70262695 132.64255859 8.22727539 133.21630859 8.76782227 C135.41510927 11.23492898 135.78288333 13.19858223 135.96630859 16.42797852 C136.02689453 17.1640332 136.08748047 17.90008789 136.14990234 18.65844727 C134.79942458 24.27269758 131.09299049 27.26415746 126.38989258 30.19970703 C122.49524792 32.39026979 118.51329656 34.40720072 114.52880859 36.42797852 C113.09215931 37.1704608 111.65637345 37.91461603 110.22143555 38.66040039 C108.05924562 39.78383792 105.8965556 40.90614501 103.73078918 42.02267456 C96.41032777 45.79829325 89.19758514 49.75931294 81.99169922 53.74902344 C81.1725 54.19995361 80.35330078 54.65088379 79.50927734 55.11547852 C78.80697998 55.50477539 78.10468262 55.89407227 77.38110352 56.29516602 C67.28045918 61.44999597 54.5602566 57.50845025 44.18115234 54.91625977 C42.7521838 54.56875274 41.32302627 54.22202205 39.89369202 53.87602234 C36.9255148 53.15371672 33.96033829 52.42040337 30.99682617 51.67919922 C27.20623319 50.7323703 23.40884552 49.81683533 19.60861874 48.9095583 C16.66700371 48.20315897 13.72995522 47.47909583 10.79394722 46.74977684 C9.39477042 46.40473861 7.99415399 46.06548258 6.5921154 45.73226357 C4.63810028 45.26535735 2.6905471 44.77165506 0.7434082 44.27685547 C-0.36321671 44.00372025 -1.46984161 43.73058502 -2.61000061 43.44917297 C-6.08711138 41.98028648 -7.51385246 40.44180658 -9.47119141 37.24047852 C-8.77080849 33.66852566 -8.04834699 31.8176341 -5.47119141 29.24047852 C2.35722234 28.88162052 10.40358678 31.50423111 17.91162109 33.40063477 C19.82819862 33.87331197 21.74477885 34.34597849 23.66151237 34.81802273 C28.34165301 35.97315384 33.01791853 37.14387068 37.69433594 38.31396484 C40.33389984 38.9738765 42.97462829 39.62874651 45.6166687 40.27867126 C48.09178014 40.88813907 50.56498442 41.50542095 53.03591919 42.13160706 C64.31922063 45.12132279 64.31922063 45.12132279 75.20849609 42.10766602 C76.46025635 41.4023877 76.46025635 41.4023877 77.73730469 40.68286133 C78.61725098 40.165625 79.49719727 39.64838867 80.40380859 39.11547852 C82.33014269 38.0230105 84.25726263 36.93192731 86.18505859 35.84204102 C87.20212891 35.26099609 88.21919922 34.67995117 89.26708984 34.08129883 C94.51435799 31.1198915 99.82596787 28.27989263 105.13775635 25.43634033 C107.96552524 23.92184458 110.78987688 22.40099898 113.61474609 20.88110352 C115.25271974 20.00080738 116.89072115 19.12056288 118.52880859 18.24047852 C111.70645997 20.24200501 104.94168635 22.37140409 98.21630859 24.67797852 C97.34941406 24.96479492 96.48251953 25.25161133 95.58935547 25.54711914 C90.76408177 27.2073091 87.49564521 28.98223154 83.52880859 32.24047852 C80.64160661 33.68064451 77.66551342 34.83821706 74.65380859 35.99047852 C73.87650391 36.30629883 73.09919922 36.62211914 72.29833984 36.94750977 C63.48006129 40.37107673 56.67161054 39.0752781 47.77880859 36.55297852 C46.36148438 36.1865625 46.36148438 36.1865625 44.91552734 35.81274414 C38.09633463 33.89696809 38.09633463 33.89696809 35.36083984 30.73266602 C34.52880859 28.24047852 34.52880859 28.24047852 34.96630859 25.05297852 C36.52880859 22.24047852 36.52880859 22.24047852 39.07958984 20.90454102 C43.75926447 20.00358441 46.86139886 21.27073874 51.27880859 22.80297852 C57.84618622 24.88774375 62.388229 25.85543723 68.97412109 23.07250977 C69.74369141 22.6606543 69.74369141 22.6606543 70.52880859 22.24047852 C69.70638672 22.29848633 68.88396484 22.35649414 68.03662109 22.41625977 C59.06691021 22.77877695 52.66289417 21.32752295 45.5703125 15.68139648 C40.99964004 13.51603215 36.64343591 13.79964264 31.64599609 13.79907227 C30.5947757 13.78586441 29.5435553 13.77265656 28.46047974 13.75904846 C25.10822876 13.71820075 21.756252 13.69648835 18.40380859 13.67797852 C15.04430699 13.65420506 11.68506413 13.62612638 8.32571411 13.5861969 C6.23683699 13.56180832 4.14782225 13.54697549 2.05880737 13.54258728 C1.11417633 13.53240067 0.16954529 13.52221405 -0.80371094 13.51171875 C-2.05016891 13.50530617 -2.05016891 13.50530617 -3.32180786 13.49876404 C-5.47119141 13.24047852 -5.47119141 13.24047852 -8.47119141 11.24047852 C-9.34619141 8.92797852 -9.34619141 8.92797852 -9.47119141 6.24047852 C-7.07927219 1.22883826 -5.39470411 0.14452888 0 0 Z " fill="#FFFFFF" transform="translate(214.47119140625,406.759521484375)"/>
<path d="M0 0 C0.90194092 -0.01913956 1.80388184 -0.03827911 2.7331543 -0.05799866 C4.18782104 -0.06300636 4.18782104 -0.06300636 5.671875 -0.06811523 C6.68096924 -0.07810043 7.69006348 -0.08808563 8.72973633 -0.09837341 C10.86812242 -0.11356011 13.00657957 -0.12059904 15.14501953 -0.12011719 C18.38306778 -0.12663092 21.61796956 -0.18097452 24.85546875 -0.23803711 C36.07162673 -0.32864051 45.00972229 -0.31645366 54.421875 6.43579102 C57.5133191 8.49675375 57.99134177 8.67132268 61.44140625 8.52563477 C62.21677734 8.5056543 62.99214844 8.48567383 63.79101562 8.46508789 C65.40837202 8.4043239 67.02557384 8.33928166 68.64257812 8.26977539 C73.77709797 8.14661486 76.87816116 8.78916062 81.421875 11.43579102 C85.23214675 12.96000358 87.67518178 11.90993523 91.4375 10.52954102 C92.60667969 10.11575195 93.77585937 9.70196289 94.98046875 9.27563477 C97.42760523 8.38741486 99.87294884 7.49423868 102.31640625 6.59594727 C108.85862805 4.29072971 113.62182066 2.63460976 120.421875 4.43579102 C125.25626593 6.89859394 127.72423737 9.24301709 129.421875 14.43579102 C129.421875 19.91840491 128.82439509 22.66392814 125.10400391 26.90063477 C121.73195256 29.97805986 117.64746998 31.87008711 113.609375 33.93579102 C111.64014388 34.97408266 109.67276243 36.01588831 107.70703125 37.06079102 C106.6823877 37.60477539 105.65774414 38.14875977 104.60205078 38.70922852 C98.15337418 42.21030643 91.85589393 45.97528944 85.54370117 49.71508789 C83.67746917 50.81595955 81.80538031 51.90698076 79.92675781 52.98657227 C78.40199265 53.86873659 76.89127665 54.7766509 75.40917969 55.72875977 C66.33943562 61.12798078 55.23864278 58.51318818 45.5730896 56.07328796 C44.28032496 55.72992651 42.98773632 55.38590184 41.6953125 55.04125977 C40.3313016 54.68864778 38.96700689 54.33713204 37.60244751 53.98664856 C34.77118074 53.25585165 31.9429835 52.51447765 29.11669922 51.76464844 C25.49772765 50.80508041 21.87311858 49.86923372 18.24609947 48.94060802 C15.44047621 48.2202298 12.63764114 47.48947438 9.83559036 46.75533485 C8.49907998 46.40611598 7.16183955 46.05967848 5.82386398 45.71611595 C3.96241028 45.23607773 2.10487134 44.74093563 0.24755859 44.24511719 C-0.80799225 43.96754074 -1.86354309 43.68996429 -2.95108032 43.40397644 C-5.62820352 42.4173348 -6.91828773 41.73465406 -8.578125 39.43579102 C-9.23140797 33.33848332 -9.23140797 33.33848332 -7.32905579 30.70985413 C-4.41294237 28.58794699 -1.91870725 29.45276424 1.5116272 29.91305542 C6.80930033 30.8646178 11.9852081 32.21028429 17.18359375 33.59594727 C19.62564903 34.23072065 22.06770638 34.86548603 24.50976562 35.50024414 C28.3219695 36.50099382 32.13340296 37.50462495 35.94458008 38.50927734 C39.64746769 39.48264451 43.35289022 40.44586624 47.05859375 41.40844727 C48.19415207 41.71154312 49.32971039 42.01463898 50.49967957 42.32691956 C60.0313637 44.96932215 60.0313637 44.96932215 69.5012207 43.12573242 C71.0339563 42.21573486 71.0339563 42.21573486 72.59765625 41.28735352 C73.16129379 40.95883392 73.72493134 40.63031433 74.3056488 40.2918396 C76.12363495 39.22843297 77.92865486 38.14486924 79.734375 37.06079102 C80.98308365 36.32607412 82.23276544 35.59300874 83.48339844 34.86157227 C85.97015091 33.4062961 88.45323374 31.94505131 90.93408203 30.47973633 C95.63317763 27.71408676 100.39541447 25.06504442 105.171875 22.43579102 C105.92122314 22.02151855 106.67057129 21.60724609 107.44262695 21.18041992 C109.1014054 20.26378443 110.76145994 19.34945856 112.421875 18.43579102 C108.68066029 19.60813027 104.94586344 20.79892101 101.21582031 22.00634766 C99.32923623 22.61288684 97.43807635 23.20513372 95.546875 23.79711914 C88.99550485 25.92807556 84.46812443 27.81191489 79.421875 32.43579102 C76.6936956 33.92637785 73.86793637 35.09333673 70.984375 36.24829102 C69.89672852 36.71525391 69.89672852 36.71525391 68.78710938 37.19165039 C60.33957264 40.64504591 53.68350951 39.29307063 45.171875 36.74829102 C44.2746875 36.50401367 43.3775 36.25973633 42.453125 36.00805664 C35.98796904 34.09657715 35.98796904 34.09657715 33.2734375 30.92797852 C32.08356442 27.4456894 32.83201753 25.6877722 34.421875 22.43579102 C37.421875 20.43579102 37.421875 20.43579102 39.48046875 20.57250977 C40.26550781 20.75426758 41.05054688 20.93602539 41.859375 21.12329102 C42.74109375 21.31665039 43.6228125 21.51000977 44.53125 21.70922852 C46.53237934 22.21221508 48.52199536 22.7624765 50.5 23.34985352 C57.10674828 25.43903236 57.10674828 25.43903236 63.671875 24.12329102 C64.579375 23.56641602 65.486875 23.00954102 66.421875 22.43579102 C65.76703125 22.50540039 65.1121875 22.57500977 64.4375 22.64672852 C54.91605252 23.21156015 48.20425556 19.62404472 40.421875 14.43579102 C38.28370285 14.12965555 38.28370285 14.12965555 35.90625 14.16455078 C34.99520508 14.15436417 34.08416016 14.14417755 33.14550781 14.13368225 C32.16420898 14.13154221 31.18291016 14.12940216 30.171875 14.12719727 C28.09895543 14.10204459 26.02603883 14.07664646 23.953125 14.05102539 C20.68099689 14.02223184 17.40892016 13.99821688 14.13671875 13.97949219 C10.98150332 13.95789738 7.82688523 13.91846957 4.671875 13.87719727 C3.69057617 13.87708145 2.70927734 13.87696564 1.69824219 13.87684631 C0.78719727 13.86350754 -0.12384766 13.85016876 -1.0625 13.83642578 C-1.86397461 13.83135513 -2.66544922 13.82628448 -3.49121094 13.82106018 C-6.12205652 13.33537479 -7.00488183 12.57584517 -8.578125 10.43579102 C-9.015625 6.93579102 -9.015625 6.93579102 -8.578125 3.43579102 C-5.81412954 0.75068588 -3.8045441 0.05508032 0 0 Z " fill="#D8241A" transform="translate(213.578125,276.564208984375)"/>
<path d="M0 0 C3.83673766 1.7143615 3.83673766 1.7143615 8 1.25 C9.3921875 0.569375 9.3921875 0.569375 10.8125 -0.125 C19.45456392 -3.06004058 26.17568229 -3.04311582 34.5234375 0.69140625 C41.58778355 4.34413126 45.40855702 9.39832989 47.8125 16.875 C49.44632354 27.38944504 46.74489786 36.10025826 40.828125 44.7890625 C32.26113685 55.81678129 21.04146932 64.21108001 7.8125 68.875 C-3.02549172 68.875 -12.4237608 60.65329031 -20.1875 53.875 C-21.14462891 53.06095703 -21.14462891 53.06095703 -22.12109375 52.23046875 C-30.4717302 44.58656768 -35.3023171 34.69411561 -36.5625 23.5625 C-35.76936867 15.76337527 -33.25242859 8.61418157 -27.30078125 3.3125 C-18.7596189 -2.49738493 -9.43679658 -4.14092268 0 0 Z M-20.5 15.625 C-22.92125836 18.85334448 -23.1875 20.82596779 -23.1875 24.875 C-20.14237794 37.15565673 -9.8821646 46.76816248 0.5 53.4375 C4.41462309 55.1362987 5.74127967 54.94637377 9.8125 53.875 C20.75175982 47.79461737 31.16801848 39.28901518 34.8125 26.875 C35.40175497 22.52924459 35.14907029 20.54814057 33.1875 16.625 C30.48476478 13.49551712 28.7435322 12.16014514 24.8125 10.875 C19.78341474 10.72679513 15.88374965 11.85064311 11.8125 14.875 C11.131875 15.74125 11.131875 15.74125 10.4375 16.625 C8.8125 17.875 8.8125 17.875 5.5 17.875 C1.8125 16.875 1.8125 16.875 -1.125 14.375 C-7.84897275 8.88604265 -13.90178906 10.63175928 -20.5 15.625 Z " fill="#D8241A" transform="translate(266.1875,210.125)"/>
<path d="M0 0 C5.36817093 4.74419534 8.74138339 9.47338901 9.2746582 16.74536133 C9.29449559 18.19080808 9.30257001 19.63644949 9.30078125 21.08203125 C9.30506638 21.85504074 9.3093515 22.62805023 9.31376648 23.42448425 C9.31949301 25.05584741 9.32002242 26.6872361 9.31567383 28.31860352 C9.31252325 30.79423439 9.33596003 33.26865808 9.36132812 35.74414062 C9.36360248 37.33593601 9.36430398 38.92773457 9.36328125 40.51953125 C9.372491 41.25001175 9.38170074 41.98049225 9.39118958 42.73310852 C9.33738989 48.81377816 8.12437478 54.33864357 4.23828125 59.20703125 C-2.20134685 64.57556502 -8.08947836 67.6658667 -16.6328125 67.35546875 C-22.97751848 66.40271587 -29.56747964 63.69325685 -34 59 C-37.61301208 53.38874143 -38.5991034 48.56133224 -38.53125 41.96875 C-38.5350769 41.13339722 -38.53890381 40.29804443 -38.54284668 39.43737793 C-38.54555163 37.6826862 -38.5382904 35.92795317 -38.52148438 34.17333984 C-38.50005273 31.50656167 -38.52133288 28.84247689 -38.546875 26.17578125 C-38.54423147 24.46093163 -38.53910597 22.74608366 -38.53125 21.03125 C-38.53934692 20.24455933 -38.54744385 19.45786865 -38.55578613 18.64733887 C-38.44703394 12.14062216 -36.60318482 6.78030874 -32.10546875 1.9765625 C-21.96257691 -5.17097432 -10.89464992 -6.45409129 0 0 Z M-23 12 C-25.92450033 15.78582528 -25.92450033 15.78582528 -25 25 C-18.07 25 -11.14 25 -4 25 C-3.32917961 16.59628479 -3.32917961 16.59628479 -6 12 C-12.48290179 7.96619444 -16.49830121 8.09898072 -23 12 Z M-25 38 C-25.91131483 47.21416895 -25.91131483 47.21416895 -23 51.0625 C-19.2810598 53.46431554 -16.41545012 54.30242809 -12 54 C-7.25183145 52.3293481 -6.30259602 51.60519204 -4 47 C-4 44.03 -4 41.06 -4 38 C-10.93 38 -17.86 38 -25 38 Z " fill="#FFFFFF" transform="translate(291,342)"/>
<path d="M0 0 C3.375 0.9375 3.375 0.9375 5.375 3.9375 C5.91422488 8.31947686 6.02710203 12.72336825 6.17285156 17.13378906 C6.24952454 19.29907283 6.35839255 21.46120569 6.46875 23.625 C6.52021635 25.00773997 6.56975838 26.39055317 6.6171875 27.7734375 C6.6672998 29.02688965 6.71741211 30.2803418 6.76904297 31.57177734 C6.30030764 35.57548567 5.26238937 37.1731988 2.375 39.9375 C-0.86208907 40.46600434 -2.66292509 40.56782494 -5.4375 38.75 C-9.18349202 33.03243323 -7.88802708 24.40212693 -7.9375 17.875 C-7.96650391 16.59560547 -7.99550781 15.31621094 -8.02539062 13.99804688 C-8.03376953 12.77021484 -8.04214844 11.54238281 -8.05078125 10.27734375 C-8.06536377 9.15706787 -8.07994629 8.03679199 -8.0949707 6.88256836 C-7.27754258 1.76016036 -5.12302696 -0.08832805 0 0 Z " fill="#00573A" transform="translate(263.625,140.0625)"/>
</svg>
